<svg width="332" height="81" viewBox="0 0 332 81" fill="none" xmlns="http://www.w3.org/2000/svg">
<path d="M0 68.3936H32.8861L0 56.6147V68.3936Z" fill="#661109"/>
<path opacity="0.25" d="M322.577 2.5V43.8066L246.309 65.8936H51.6289L2.5 48.293V24.585L78.7686 2.5H322.577Z" fill="#D9D9D9" stroke="#661109" stroke-width="5"/>
<path d="M6.92285 73.7244H39.8089L6.92285 61.9413V73.7244Z" fill="#FCF551"/>
<path d="M330.5 6.83105V49.8896L253.371 72.2246H58.3789L8.42285 54.3281V29.1611L85.542 6.83105H330.5Z" fill="#2F2E2E" fill-opacity="0.5" stroke="#FCF551" stroke-width="3"/>
<path d="M107.81 49.18H106.228L105.88 49.5659H111.784C111.758 49.5916 111.732 49.6173 111.707 49.643C111.681 49.6687 111.642 49.7073 111.591 49.7588H102.485C102.356 49.8874 102.215 50.016 102.06 50.1446C101.932 50.2733 101.79 50.4019 101.636 50.5305H104.453L103.951 50.9164H109.199L108.89 51.1093H106.613C106.588 51.135 106.536 51.1607 106.459 51.1865C106.408 51.2122 106.356 51.2508 106.305 51.3022H103.719L102.639 51.881H104.144C103.809 52.0354 103.475 52.1768 103.141 52.3055C102.806 52.4083 102.459 52.5241 102.099 52.6527H100.71C99.8351 52.91 98.8833 53.1029 97.8544 53.2315H98.0473C97.6357 53.283 97.2113 53.3215 96.774 53.3473C96.3367 53.373 95.8994 53.3859 95.4621 53.3859C94.9733 53.3859 94.4845 53.373 93.9958 53.3473C93.5328 53.3215 93.0826 53.283 92.6453 53.2315H92.4909C91.3848 53.1029 90.3944 52.91 89.5198 52.6527H90.9089C90.5231 52.5241 90.1629 52.4083 89.8285 52.3055C89.4941 52.1768 89.1597 52.0354 88.8253 51.881H87.3204C87.1404 51.7781 86.9603 51.6881 86.7802 51.6109C86.6002 51.508 86.4201 51.4051 86.24 51.3022H88.8639L88.5552 51.1093H90.8317C90.806 51.0578 90.7674 51.0193 90.716 50.9935C90.6645 50.9678 90.6131 50.9421 90.5616 50.9164H85.314C85.2111 50.8649 85.121 50.8006 85.0439 50.7234C84.9667 50.6463 84.8895 50.5819 84.8123 50.5305H81.957C81.8284 50.4019 81.6997 50.2733 81.5711 50.1446C81.4168 50.016 81.2753 49.8874 81.1467 49.7588H90.253C90.2272 49.7073 90.2015 49.6687 90.1758 49.643C90.1501 49.6173 90.1243 49.5916 90.0986 49.5659H84.195C84.0921 49.463 83.9892 49.3343 83.8863 49.18H85.4683C85.4426 49.1285 85.4169 49.09 85.3911 49.0642C85.3654 49.0385 85.3397 49.0128 85.314 48.9871H90.1372L89.7899 48.4083H87.3976L87.2818 48.2153H81.8412C81.8155 48.1124 81.7769 48.0224 81.7255 47.9452C81.674 47.8423 81.6226 47.7395 81.5711 47.6366H84.1564L83.9249 47.0578H82.9988L82.9216 46.8648H83.3461C83.3203 46.7619 83.2946 46.6719 83.2689 46.5947C83.2432 46.4918 83.2175 46.3889 83.1917 46.286H82.883C82.883 46.1832 82.8702 46.0931 82.8445 46.0159C82.8445 45.913 82.8316 45.8102 82.8059 45.7073H82.4972C82.4972 45.6044 82.4843 45.5143 82.4586 45.4372C82.4586 45.36 82.4586 45.2699 82.4586 45.1671V45.1285H82.42C82.42 45.077 82.42 45.0384 82.42 45.0127C82.4457 44.987 82.4586 44.9613 82.4586 44.9355H83.3461C83.4747 44.524 83.7448 44.3182 84.1564 44.3182H91.4877C91.8993 44.3182 92.208 44.3696 92.4138 44.4725C92.6196 44.5754 92.8511 44.7297 93.1083 44.9355H92.2208L92.2594 44.9741C92.3109 44.9998 92.3495 45.0256 92.3752 45.0513C92.4266 45.077 92.4652 45.1027 92.4909 45.1285H92.5295C92.8639 45.3857 93.2755 45.5786 93.7643 45.7073H94.1115C94.446 45.8102 94.8961 45.8616 95.4621 45.8616C95.7965 45.8616 96.1052 45.8487 96.3881 45.823C96.6711 45.7973 96.9155 45.7587 97.1213 45.7073H97.0055C97.5971 45.5786 97.9701 45.3857 98.1245 45.1285H98.0473C98.0988 45.0256 98.1245 44.9613 98.1245 44.9355H98.5103L98.5489 44.7812C98.5489 44.5497 98.4589 44.3439 98.2788 44.1638H97.9701C97.7386 43.9323 97.327 43.7394 96.7354 43.585H96.6196C96.3881 43.5079 96.118 43.4435 95.8093 43.3921C95.5006 43.3149 95.1405 43.2506 94.7289 43.1992H94.4974L92.9154 42.9677C92.7353 42.9419 92.5552 42.9162 92.3752 42.8905C92.2208 42.8648 92.0536 42.839 91.8736 42.8133C90.8189 42.6332 89.8028 42.376 88.8253 42.0416H88.1307C87.7706 41.913 87.4362 41.7844 87.1275 41.6557H86.5873C86.4587 41.6043 86.3301 41.5528 86.2014 41.5014C86.0728 41.4242 85.9442 41.347 85.8156 41.2699H82.4586C82.2785 41.167 82.1113 41.0769 81.957 40.9998C81.8026 40.8969 81.6483 40.794 81.4939 40.6911H88.6709C88.5423 40.5882 88.4137 40.4982 88.2851 40.421C88.1822 40.3181 88.0664 40.2152 87.9378 40.1123H80.2592C80.182 40.0608 80.1177 39.9965 80.0663 39.9194C79.9891 39.8422 79.9248 39.7779 79.8733 39.7264H81.8798C81.6483 39.4692 81.4296 39.212 81.2238 38.9547H81.8026L81.5711 38.5689H77.8669C77.8411 38.5174 77.8154 38.4788 77.7897 38.4531C77.764 38.4274 77.7511 38.4017 77.7511 38.3759H86.5487C86.4973 38.273 86.4458 38.183 86.3944 38.1058C86.3429 38.0029 86.2915 37.9 86.24 37.7971H79.4875L79.256 37.2184H84.6966L84.6194 37.0254H82.9988L82.9216 36.8325H83.6933C83.6933 36.781 83.6805 36.7425 83.6548 36.7167C83.6548 36.691 83.6548 36.6653 83.6548 36.6396H83.5004L83.3847 36.2537H83.1531L83.1146 35.8678H83.0374V35.6749H81.8026C81.7769 35.6235 81.764 35.5592 81.764 35.482C81.764 35.4048 81.764 35.3405 81.764 35.2891H80.6451L80.6065 34.9032H85.0053C84.9795 34.8517 84.9667 34.7874 84.9667 34.7103C84.9667 34.6331 84.9667 34.5688 84.9667 34.5173H85.5841V34.4787C85.5841 34.3501 85.5841 34.2215 85.5841 34.0929C85.5841 33.9643 85.5969 33.8485 85.6226 33.7456H83.9634C83.9892 33.6427 84.002 33.5527 84.002 33.4755C84.002 33.3726 84.0149 33.2697 84.0406 33.1668H86.7416C86.7416 33.1154 86.7416 33.0768 86.7416 33.0511C86.7674 33.0253 86.7802 32.9996 86.7802 32.9739H84.0406C84.0921 32.8196 84.1178 32.6909 84.1178 32.588H83.6933L83.8091 32.2022H83.1531C83.2303 31.9192 83.3203 31.662 83.4232 31.4305H83.7319L83.8863 31.0446H84.3107L84.658 30.4658H84.2721C84.3493 30.3629 84.4136 30.2729 84.4651 30.1957C84.5422 30.0928 84.6065 29.9899 84.658 29.887H84.3493L84.8123 29.3082H85.6226C85.6484 29.2568 85.6741 29.2182 85.6998 29.1925C85.7255 29.1668 85.7513 29.141 85.777 29.1153H84.6966C84.7995 29.0124 84.9024 28.9224 85.0053 28.8452C85.1082 28.7423 85.2111 28.6394 85.314 28.5365H85.9313C86.0857 28.4079 86.24 28.2793 86.3944 28.1507C86.5487 27.9963 86.7159 27.8677 86.896 27.7648H87.5905C87.7449 27.6619 87.8992 27.5719 88.0536 27.4947C88.2079 27.3918 88.3751 27.2889 88.5552 27.186H88.4394C88.4909 27.1346 88.5552 27.096 88.6323 27.0702C88.7095 27.0445 88.7738 27.0188 88.8253 26.9931H88.2851C88.3365 26.9416 88.4008 26.903 88.478 26.8773C88.5552 26.8516 88.6323 26.8259 88.7095 26.8001H88.3237C88.6838 26.6458 89.0568 26.5043 89.4427 26.3757C89.8542 26.2471 90.2658 26.1313 90.6774 26.0284H91.2562C91.8478 25.8998 92.4652 25.7969 93.1083 25.7197C93.7771 25.6426 94.4717 25.604 95.192 25.604C96.5553 25.604 97.8415 25.7455 99.0505 26.0284H98.5103C99.3335 26.2085 100.131 26.4657 100.903 26.8001H101.25C101.327 26.8259 101.404 26.8516 101.481 26.8773C101.559 26.903 101.636 26.9416 101.713 26.9931H102.253C102.305 27.0188 102.369 27.0445 102.446 27.0702C102.523 27.096 102.588 27.1346 102.639 27.186H102.755C102.935 27.2889 103.102 27.3918 103.256 27.4947C103.436 27.5719 103.604 27.6619 103.758 27.7648H103.102C103.308 27.8677 103.488 27.9963 103.642 28.1507C103.822 28.2793 103.99 28.4079 104.144 28.5365H103.565L104.182 29.1153H105.263L105.456 29.3082H104.646C104.748 29.4111 104.838 29.514 104.916 29.6169C105.019 29.6941 105.109 29.7841 105.186 29.887H105.494L105.957 30.4658H106.305L106.652 31.0446H106.228C106.305 31.1732 106.369 31.3018 106.42 31.4305H106.112C106.189 31.5591 106.253 31.6877 106.305 31.8163C106.356 31.9449 106.408 32.0736 106.459 32.2022H107.115C107.166 32.3565 107.192 32.4851 107.192 32.588H107.655C107.681 32.6395 107.694 32.7038 107.694 32.781C107.694 32.8581 107.707 32.9224 107.732 32.9739H110.472V33.1668H108.002C108.028 33.2697 108.041 33.4112 108.041 33.5913V33.7456H106.613C106.51 34.2086 106.253 34.4402 105.842 34.4402H98.1245C97.7644 34.4402 97.4685 34.3887 97.237 34.2858C97.0312 34.1829 96.8126 34.0286 96.581 33.8228L96.4653 33.7456H97.893C97.7644 33.6427 97.5843 33.5398 97.3528 33.4369C97.1213 33.3083 96.8254 33.2183 96.4653 33.1668H95.0762C94.536 33.244 94.163 33.4369 93.9572 33.7456H95.6164C95.5392 33.9 95.5006 34.0543 95.5006 34.2086C95.5006 34.3373 95.5135 34.4402 95.5392 34.5173H94.9604C94.9862 34.646 95.0891 34.7746 95.2691 34.9032H90.9089C91.0633 35.0318 91.3334 35.1604 91.7192 35.2891H92.8382C93.044 35.3662 93.2884 35.4434 93.5713 35.5206C93.88 35.572 94.2016 35.6235 94.536 35.6749H95.7707C95.9765 35.7006 96.1952 35.7264 96.4267 35.7521C96.6582 35.7778 96.9026 35.8164 97.1598 35.8678H97.1984C97.6357 35.9193 98.0602 35.9836 98.4718 36.0608C98.8833 36.1122 99.2692 36.1765 99.6293 36.2537H99.8609C100.17 36.3052 100.453 36.3695 100.71 36.4466C100.993 36.4981 101.263 36.5624 101.52 36.6396H101.674C101.803 36.6653 101.919 36.691 102.022 36.7167C102.125 36.7425 102.227 36.781 102.33 36.8325H101.597C101.7 36.8582 101.79 36.8839 101.867 36.9097C101.97 36.9354 102.073 36.974 102.176 37.0254H103.797C103.874 37.0511 103.951 37.0769 104.028 37.1026C104.131 37.1283 104.221 37.1669 104.298 37.2184H98.8576C99.3721 37.4241 99.7837 37.6171 100.092 37.7971H106.845C106.999 37.9 107.154 38.0029 107.308 38.1058C107.462 38.183 107.604 38.273 107.732 38.3759H98.9348C98.9862 38.4017 99.0377 38.4274 99.0891 38.4531C99.1406 38.4788 99.1792 38.5174 99.2049 38.5689H102.909C102.986 38.6203 103.063 38.6846 103.141 38.7618C103.218 38.839 103.282 38.9033 103.334 38.9547H102.755C103.012 39.1862 103.231 39.4435 103.411 39.7264H101.404C101.456 39.7779 101.507 39.8422 101.559 39.9194C101.61 39.9965 101.649 40.0608 101.674 40.1123H109.314L109.662 40.6911H102.485C102.536 40.794 102.588 40.8969 102.639 40.9998C102.69 41.0769 102.729 41.167 102.755 41.2699H106.073L106.189 41.6557H106.729L106.845 42.0416H107.539C107.591 42.1445 107.617 42.2731 107.617 42.4275C107.642 42.5561 107.668 42.6847 107.694 42.8133L107.732 43.1992H107.964C107.99 43.2506 108.002 43.3149 108.002 43.3921C108.002 43.4693 108.002 43.5336 108.002 43.585H108.118V44.1638H108.466V44.2796C108.466 44.3825 108.453 44.4854 108.427 44.5883C108.427 44.6912 108.427 44.8069 108.427 44.9355H108.041V45.1285H108.118C108.118 45.2314 108.105 45.3343 108.08 45.4372C108.08 45.5143 108.067 45.6044 108.041 45.7073H108.157L108.041 46.286H108.35C108.324 46.3889 108.298 46.4918 108.273 46.5947C108.247 46.6719 108.208 46.7619 108.157 46.8648H107.732C107.732 46.8906 107.72 46.9163 107.694 46.942C107.694 46.9677 107.694 47.0063 107.694 47.0578H108.62L108.388 47.6366H105.803C105.777 47.7395 105.726 47.8423 105.649 47.9452C105.597 48.0224 105.546 48.1124 105.494 48.2153H110.935L110.819 48.4083H113.173C113.122 48.5112 113.057 48.6141 112.98 48.717C112.929 48.7941 112.864 48.8842 112.787 48.9871H107.964C107.938 49.0128 107.912 49.0385 107.887 49.0642C107.861 49.09 107.835 49.1285 107.81 49.18ZM97.7772 33.1668H98.9348C98.8576 33.1411 98.7676 33.1282 98.6647 33.1282C98.5875 33.1282 98.4975 33.1282 98.3946 33.1282C98.2917 33.1282 98.1888 33.1282 98.0859 33.1282C97.983 33.1282 97.8801 33.1411 97.7772 33.1668ZM133.171 37.0254H132.515V37.6042H132.669V38.183H133.518V38.5689H133.055V39.3406H132.939V39.5335H133.094V40.3052H132.476V40.6911H131.241V41.0769H132.168V41.6557H132.785V42.0416H132.978V42.8133H133.094V43.9709H133.055V44.5497H132.978V45.3214H134.174V45.9002H132.322V46.8648H133.132V47.0578H133.441V47.2507H132.476V47.8295H132.206V48.6012H133.132V49.3729H132.862V49.9517H133.132V50.3376H133.055V51.1093H133.016V51.881H133.094V52.0739H133.055C133.004 52.3312 132.914 52.5241 132.785 52.6527H133.441C133.287 52.8842 133.029 53 132.669 53H125.917C125.608 53 125.351 52.8842 125.145 52.6527H124.489C124.36 52.5241 124.27 52.3312 124.219 52.0739H124.257V51.881H124.18V51.1093H124.219V50.6848C124.142 50.8392 124.039 50.9807 123.91 51.1093H123.987C123.73 51.418 123.46 51.6752 123.177 51.881H123.1C123.074 51.9067 123.036 51.9325 122.984 51.9582C122.933 51.9839 122.881 52.0225 122.83 52.0739H122.753C122.418 52.3055 122.071 52.4984 121.711 52.6527H122.367C121.749 52.9357 121.081 53.1286 120.36 53.2315H119.859C119.55 53.283 119.228 53.3215 118.894 53.3473C118.585 53.373 118.251 53.3859 117.891 53.3859C117.633 53.3859 117.376 53.373 117.119 53.3473C116.862 53.3215 116.592 53.283 116.309 53.2315H116.81C116.193 53.1029 115.614 52.91 115.074 52.6527H114.418C114.032 52.4727 113.698 52.2797 113.415 52.0739H113.531C113.505 52.0225 113.466 51.9839 113.415 51.9582C113.363 51.9325 113.312 51.9067 113.26 51.881H113.338C113.209 51.7524 113.067 51.6238 112.913 51.4951C112.785 51.3665 112.656 51.2379 112.527 51.1093H112.45C112.347 50.9807 112.244 50.852 112.141 50.7234C112.039 50.5948 111.936 50.4662 111.833 50.3376H111.91C111.884 50.2861 111.846 50.2218 111.794 50.1446C111.743 50.0675 111.691 50.0032 111.64 49.9517H111.37C111.344 49.8488 111.293 49.7588 111.215 49.6816C111.164 49.5787 111.112 49.4758 111.061 49.3729H111.37C111.241 49.09 111.138 48.8327 111.061 48.6012H110.135C110.109 48.4726 110.071 48.344 110.019 48.2153C109.968 48.0867 109.929 47.9581 109.903 47.8295H110.135L110.019 47.2507H110.984C110.958 47.1992 110.945 47.1349 110.945 47.0578H110.598C110.598 46.9806 110.585 46.9163 110.559 46.8648H109.788C109.762 46.8134 109.749 46.7491 109.749 46.6719C109.749 46.5947 109.736 46.5304 109.711 46.479H111.756C111.73 46.3761 111.717 46.286 111.717 46.2089C111.717 46.106 111.704 46.0031 111.678 45.9002H111.215C111.19 45.7973 111.177 45.7073 111.177 45.6301C111.177 45.5272 111.177 45.4243 111.177 45.3214H110.521V44.5497H110.289V43.9709H110.174V43.585H110.251V42.0416H110.096V41.6557H109.749V41.0769H110.174V40.6911H110.444V40.3052H110.482V39.5335H110.328V39.3406H110.444V38.5689H111.177V38.183H110.482V37.6042H110.251V37.0254H110.135V36.2537H111.1V35.8678H111.794V35.482H111.408V35.0961H110.559V34.9032H110.328V34.5173H110.289V33.9771C110.289 33.9257 110.289 33.8871 110.289 33.8614C110.315 33.8099 110.328 33.7713 110.328 33.7456H110.289C110.392 33.2054 110.727 32.9353 111.293 32.9353H118.662C119.254 32.9353 119.589 33.2054 119.666 33.7456H119.743V34.5173H119.781V34.9032H120.013V35.0961H120.862V35.482H121.248V35.8678H120.553V36.2537H119.589V37.0254H119.704V37.6042H119.936V38.183H120.63V38.5689H119.897V39.3406H119.781V39.5335H119.936V40.3052H119.897V40.6911H119.627V41.0769H119.203V41.6557H119.55V42.0416H119.704V43.585H119.627V43.9709H119.743V44.3567C119.743 44.4339 119.756 44.4982 119.781 44.5497H119.974C119.974 44.8326 120.013 45.0899 120.09 45.3214H120.746C120.823 45.5272 120.926 45.7201 121.055 45.9002H121.556C121.685 46.0545 121.839 46.1703 122.019 46.2475C122.199 46.1703 122.341 46.0545 122.444 45.9002H124.296C124.425 45.7201 124.528 45.5272 124.605 45.3214H123.447C123.524 45.0899 123.563 44.8326 123.563 44.5497H123.64V43.9709H123.679V42.8133H123.563V42.0416H123.37V41.6557H122.753V41.0769H121.827V40.6911H123.061V40.3052H123.679V39.5335H123.524V39.3406H123.64V38.5689H124.103V38.183H123.254V37.6042H123.1V37.0254H123.756V36.2537H124.566V35.8678H125.569V35.482H124.296V35.0961H123.64V34.9032H123.486V34.5173H123.64V33.9771C123.64 33.8742 123.653 33.7971 123.679 33.7456H123.409C123.537 33.2054 123.884 32.9353 124.45 32.9353H131.782C132.322 32.9353 132.656 33.2054 132.785 33.7456H133.016C133.042 33.7971 133.055 33.8742 133.055 33.9771V34.5173H132.901V34.9032H133.055V35.0961H133.711V35.482H134.984V35.8678H133.981V36.2537H133.171V37.0254ZM161.255 45.1285H157.628C157.628 45.2571 157.615 45.3857 157.589 45.5143C157.589 45.6429 157.576 45.7716 157.55 45.9002H158.862C158.862 45.9774 158.85 46.0417 158.824 46.0931H159.055C159.03 46.196 159.004 46.2989 158.978 46.4018C158.978 46.479 158.978 46.569 158.978 46.6719H158.399C158.374 46.7748 158.348 46.8777 158.322 46.9806C158.322 47.0578 158.296 47.1478 158.245 47.2507H158.901C158.901 47.3279 158.888 47.3922 158.862 47.4436H158.631C158.605 47.5722 158.579 47.7009 158.554 47.8295C158.528 47.9581 158.489 48.0867 158.438 48.2153H158.399C158.322 48.4469 158.219 48.7041 158.091 48.9871H158.129C158.078 49.1157 158.013 49.2443 157.936 49.3729H157.898L157.782 49.5659H156.547L156.2 50.1446H155.158L155.042 50.3376H153.653C153.55 50.4662 153.447 50.5948 153.345 50.7234C153.267 50.852 153.165 50.9807 153.036 51.1093H158.592C158.541 51.1865 158.477 51.2636 158.399 51.3408C158.322 51.3923 158.258 51.4437 158.206 51.4951H153.769L153.538 51.6881H156.2C156.02 51.8424 155.827 51.9839 155.621 52.1125C155.441 52.2154 155.248 52.3312 155.042 52.4598H153.46C153.126 52.6399 152.766 52.7942 152.38 52.9228C151.994 53.0514 151.582 53.1543 151.145 53.2315H152.727C152.444 53.283 152.148 53.3215 151.84 53.3473C151.531 53.373 151.209 53.3859 150.875 53.3859C150.566 53.3859 150.258 53.373 149.949 53.3473C149.666 53.3215 149.383 53.283 149.1 53.2315H147.518C146.746 53.0772 146.013 52.8199 145.319 52.4598H143.814C143.582 52.8199 143.274 53 142.888 53H136.328C135.917 53 135.621 52.8199 135.441 52.4598H137.023C136.946 52.3055 136.907 52.1382 136.907 51.9582V51.6881H135.942V51.4951H134.939V51.1093H132.817V50.3376H134.167V50.1446H135.209V49.5659H136.444V49.3729H136.521V48.9871H136.483V48.2153H136.521V47.4436H136.753V47.2507H136.097V46.6719H136.675V45.9002H136.946V45.1285H135.749V44.9355H136.56V44.1638H140.611V43.585H139.531V43.3921H136.405V42.8133H136.328V42.6204H136.444V41.8487H136.984V41.2699H136.714V40.6911H136.637V40.3052H136.907V39.5335H135.942V38.7618H136.251V38.183H135.441V37.7971H136.367V37.2184H136.521V36.4466H135.634V35.8678H136.714V34.5173H134.939V33.7456H135.441V33.5527H136.521V32.781H136.675V32.588H136.753V32.3951H135.827V32.2022H137.061V31.6234H136.753V31.4305H136.483V30.8517H137.447V30.4658H138.528V29.887H137.717V29.1153H136.097V28.9224H136.56V28.5365H136.135V28.3436H134.901V27.5719H135.942V27.3789H136.328V26.8001H136.019V26.6072H136.521C136.521 26.2985 136.65 26.0413 136.907 25.8355H136.598C136.804 25.6812 137.023 25.604 137.254 25.604H144.393C144.676 25.604 144.894 25.6812 145.049 25.8355H145.357C145.615 26.0413 145.743 26.2985 145.743 26.6072H145.242V26.8001H145.55V27.3789H145.164V27.5719H144.123V28.3436H145.357V28.5365H145.782V28.9224H145.319V29.1153H146.939V29.887H147.75V30.4658H146.669V30.8517H145.705V31.4305H145.975V31.6234H146.283V32.2022H145.049V32.3951H145.975V32.588H145.897V32.781H145.743V33.5527H144.663V33.7456H144.161V34.363C144.29 34.2344 144.418 34.1315 144.547 34.0543C144.676 33.9514 144.817 33.8485 144.971 33.7456H146.438C146.489 33.6942 146.541 33.6556 146.592 33.6299C146.669 33.6041 146.721 33.5784 146.746 33.5527H147.171C147.788 33.1926 148.444 32.9353 149.139 32.781H148.791C148.997 32.7295 149.19 32.6909 149.37 32.6652C149.576 32.6395 149.782 32.6138 149.988 32.588H149.795C149.923 32.5623 150.052 32.5495 150.181 32.5495C150.335 32.5495 150.489 32.5495 150.644 32.5495C150.798 32.5495 150.952 32.5495 151.107 32.5495C151.261 32.5495 151.402 32.5623 151.531 32.588H151.724C151.93 32.6138 152.136 32.6395 152.341 32.6652C152.573 32.6909 152.779 32.7295 152.959 32.781H153.306C154.026 32.9353 154.708 33.1926 155.351 33.5527H154.927C154.978 33.5784 155.03 33.6041 155.081 33.6299C155.158 33.6556 155.21 33.6942 155.235 33.7456H153.769C153.949 33.8485 154.116 33.9643 154.271 34.0929C154.451 34.2215 154.618 34.363 154.772 34.5173H156.547C156.676 34.6202 156.792 34.7489 156.894 34.9032C157.023 35.0318 157.139 35.1604 157.242 35.2891C157.319 35.3919 157.396 35.4948 157.473 35.5977C157.55 35.6749 157.615 35.7649 157.666 35.8678H156.586C156.74 36.0479 156.856 36.2408 156.933 36.4466H157.821C157.872 36.5495 157.936 36.6781 158.013 36.8325C158.091 36.9611 158.155 37.0897 158.206 37.2184H158.013L158.245 37.7971H157.358L157.473 38.183H158.284C158.309 38.2859 158.335 38.3888 158.361 38.4917C158.386 38.5689 158.412 38.6589 158.438 38.7618H158.129C158.181 38.8647 158.206 38.9933 158.206 39.1476C158.232 39.2763 158.258 39.4049 158.284 39.5335H159.094L159.21 40.3052H158.284C158.284 40.3567 158.284 40.421 158.284 40.4982C158.284 40.5753 158.296 40.6396 158.322 40.6911H159.094C159.094 40.794 159.094 40.8969 159.094 40.9998C159.12 41.0769 159.132 41.167 159.132 41.2699H158.978V41.8487H159.055C159.081 41.9773 159.094 42.1059 159.094 42.2345C159.094 42.3631 159.094 42.4918 159.094 42.6204H158.862V42.8133H159.634V43.3921H159.518V43.585H161.178V44.1638H158.245V44.4725C158.245 44.5497 158.245 44.6269 158.245 44.704C158.245 44.7812 158.232 44.8584 158.206 44.9355H161.293C161.268 44.987 161.255 45.0513 161.255 45.1285ZM145.589 43.3921H148.714V43.585H149.795C149.795 43.6879 149.795 43.7908 149.795 43.8937C149.82 43.9709 149.833 44.0609 149.833 44.1638H151.724C151.724 44.0609 151.724 43.9709 151.724 43.8937C151.75 43.7908 151.763 43.6879 151.763 43.585H150.065V43.3921H150.219V42.8133H149.409V42.6204H149.64C149.64 42.4918 149.64 42.3631 149.64 42.2345C149.64 42.0802 149.627 41.9516 149.602 41.8487H149.525V41.6943C149.499 41.6171 149.486 41.5528 149.486 41.5014C149.486 41.4242 149.473 41.347 149.447 41.2699H149.64C149.615 41.167 149.589 41.0769 149.563 40.9998C149.563 40.8969 149.537 40.794 149.486 40.6911H148.714C148.663 40.5367 148.611 40.4081 148.56 40.3052H149.486C149.28 39.8936 148.972 39.6364 148.56 39.5335H147.75C147.647 39.5078 147.544 39.4949 147.441 39.4949C147.338 39.4692 147.222 39.4563 147.094 39.4563C146.991 39.4563 146.875 39.4692 146.746 39.4949C146.643 39.4949 146.541 39.5078 146.438 39.5335H147.364C146.952 39.6364 146.618 39.8936 146.361 40.3052H146.129C146.078 40.4081 146.026 40.5367 145.975 40.6911H146.052C146.026 40.794 146 40.8969 145.975 40.9998C145.975 41.0769 145.962 41.167 145.936 41.2699H146.206V41.3856C146.206 41.4628 146.193 41.54 146.168 41.6171C146.168 41.6943 146.168 41.7715 146.168 41.8487H145.627C145.602 41.9773 145.589 42.1059 145.589 42.2345C145.589 42.3631 145.589 42.4918 145.589 42.6204H145.473V42.8133H145.55C145.55 42.9162 145.55 43.0191 145.55 43.122C145.55 43.1992 145.563 43.2892 145.589 43.3921ZM149.023 45.9002H147.711C147.865 45.7201 147.981 45.4629 148.058 45.1285H151.685C151.711 45.077 151.724 45.0127 151.724 44.9355H148.676L148.791 44.241V44.1638H145.782V44.241C145.807 44.3439 145.82 44.4596 145.82 44.5883C145.82 44.6912 145.833 44.8069 145.859 44.9355H145.049L145.126 45.1285H146.322C146.373 45.2828 146.412 45.4243 146.438 45.5529C146.489 45.6815 146.566 45.7973 146.669 45.9002H146.361C146.386 45.9259 146.412 45.9516 146.438 45.9774C146.489 46.0031 146.528 46.0417 146.553 46.0931C146.862 46.3504 147.287 46.479 147.827 46.479C148.341 46.479 148.753 46.3504 149.062 46.0931H148.83C148.881 46.0417 148.92 46.0031 148.946 45.9774C148.972 45.9516 148.997 45.9259 149.023 45.9002ZM147.402 51.4951C147.325 51.4437 147.248 51.3794 147.171 51.3022C147.119 51.225 147.068 51.1607 147.016 51.1093H143.582V51.4951H147.402ZM146.901 52.4598C146.489 52.2026 146.129 51.9453 145.82 51.6881H145.55V51.9582C145.55 52.1382 145.512 52.3055 145.434 52.4598H146.901ZM195.717 43.9709H194.984V44.1638H195.524V44.5497H194.096V44.7426H195.215V45.3214H194.714V45.9002H195.023V46.0931H194.791V46.479H194.945V47.0578H195.023V47.4436H194.907V47.8295H194.868V48.6012H195.061V49.3729H194.598V50.1446H194.444V50.5305H195.023V51.3022H194.251V52.0739H194.945L194.83 52.4598H195.486C195.383 52.6399 195.267 52.7685 195.138 52.8457H195.023C194.894 52.9486 194.714 53 194.482 53H187.691C187.46 53 187.28 52.9486 187.151 52.8457H187.228C187.1 52.7685 186.984 52.6399 186.881 52.4598H186.186L186.071 52.0739H185.376V51.3022H186.148V50.5305H185.569V50.1446H185.723V49.3729H186.186V48.6012H185.993V47.8295H186.032V47.4436H186.148V47.0578H186.071V46.479H185.916V46.0931H186.148V45.9002H185.839V45.3214H186.341V44.7426H185.222V44.5497H182.521V44.7426H183.022V45.3214H182.945V45.9002H183.292V46.0931H183.099V46.479H183.022V47.0578H182.984V47.4436H183.022V47.8295H183.177V48.6012H181.556V49.3729H183.678V50.1446H183.061V50.5305H183.022V51.3022H182.791V52.0739H183.022C183.022 52.1511 183.009 52.2283 182.984 52.3055C182.958 52.3569 182.932 52.4083 182.907 52.4598H183.755C183.704 52.537 183.64 52.6141 183.562 52.6913C183.511 52.7428 183.447 52.7942 183.37 52.8457H181.132C181.003 52.9486 180.823 53 180.591 53H173.8C173.569 53 173.389 52.9486 173.26 52.8457H175.498C175.318 52.7685 175.189 52.6399 175.112 52.4598H174.263L174.148 52.0739H173.916V51.3022H174.148V50.5305H174.186V50.1446H174.803V49.3729H172.681V48.6012H174.302V47.8295H174.148V47.4436H174.109V47.0578H174.148V46.479H174.225V46.0931H174.418V45.9002H174.07V45.3214H174.148V44.7426H173.646V44.5497H176.54V44.1638H174.803V43.9709H175.112V43.1992H174.148V42.4275H174.225V42.2345H173.955V41.6557H174.418V41.4628H174.186V41.347C174.186 41.2184 174.173 41.1027 174.148 40.9998C174.148 40.8969 174.135 40.794 174.109 40.6911H174.34C174.34 40.5367 174.302 40.4081 174.225 40.3052H173.916C173.813 40.0737 173.659 39.8808 173.453 39.7264H173.646C173.44 39.5464 173.144 39.4563 172.758 39.4563C172.398 39.4563 172.09 39.5464 171.832 39.7264C171.652 39.8808 171.498 40.0737 171.369 40.3052H171.254L171.138 40.6911H171.369C171.344 40.794 171.331 40.8969 171.331 40.9998C171.331 41.1027 171.331 41.2184 171.331 41.347V41.4628H170.791V41.6557H171.138V42.2345H171.061V42.4275H170.906V43.1992H170.328V43.9709H170.212V44.1638H172.373V44.5497H171.794V44.7426H171.061V45.3214H170.983V45.9002H171.254V46.0931H171.176V46.479H171.099V46.8648H170.945V47.0578H170.829V47.4436H171.138V48.6012H169.749V49.3729H171.176V50.1446H171.022V50.5305H171.292V51.3022H171.176V51.9582C171.176 51.9839 171.164 52.0096 171.138 52.0354C171.138 52.0354 171.138 52.0482 171.138 52.0739H171.331L171.215 52.4598H170.366C170.289 52.6399 170.16 52.7685 169.98 52.8457H172.758C172.63 52.9486 172.45 53 172.218 53H165.273C165.041 53 164.861 52.9486 164.733 52.8457H161.954C161.826 52.7685 161.71 52.6399 161.607 52.4598H162.417C162.392 52.4083 162.366 52.3569 162.34 52.3055C162.314 52.2283 162.302 52.1511 162.302 52.0739H162.147V51.3022H162.263V50.5305H161.993V50.1446H162.147V49.3729H160.72V48.6012H162.109V47.4436H161.8V47.0578H161.916V46.8648H162.07V46.479H162.147V46.0931H162.224V45.9002H161.954V45.3214H162.032V44.7426H162.765V44.5497H163.343V44.1638H161.183V43.9709H161.298V43.1992H161.877V42.4275H162.032V42.2345H162.109V41.6557H161.761V41.4628H162.302V40.6911H162.032V40.3052H162.147V39.7264H162.186V39.3406H161.954V39.1476H162.109V38.5689H161.761V37.9901H162.032V37.4113H161.993V36.6396H162.07V36.4466H161.761V36.0608H162.224V35.2891H161.8V35.0961H161.569V34.9032H159.986V34.3244H157.131V34.1315H160.488V33.9771C160.488 33.7456 160.552 33.5398 160.681 33.3598H162.842C162.893 33.2826 162.958 33.2183 163.035 33.1668H161.337C161.491 33.0125 161.71 32.9353 161.993 32.9353H168.36C168.617 32.9353 168.836 33.0125 169.016 33.1668H170.713C170.765 33.1926 170.803 33.2183 170.829 33.244C170.855 33.2697 170.881 33.3083 170.906 33.3598H168.745C168.874 33.5398 168.938 33.7456 168.938 33.9771V34.1315H165.581V34.3244H168.437V34.9032H170.019V35.0961H170.25V35.2505L170.366 35.0961H170.328C170.353 35.0447 170.405 34.9804 170.482 34.9032H171.987C172.141 34.6974 172.334 34.5045 172.565 34.3244H173.53L173.762 34.1315H171.254C171.434 34.0029 171.614 33.8742 171.794 33.7456C172 33.5913 172.218 33.4627 172.45 33.3598H172.836C172.887 33.3083 172.938 33.2697 172.99 33.244C173.067 33.2183 173.144 33.1926 173.221 33.1668H174.958C175.344 32.9868 175.755 32.8453 176.193 32.7424C176.63 32.6395 177.093 32.5752 177.582 32.5495C179.074 32.498 180.283 32.7038 181.209 33.1668H179.472C179.524 33.1926 179.588 33.2183 179.665 33.244C179.742 33.2697 179.807 33.3083 179.858 33.3598H179.472C179.858 33.5913 180.193 33.8485 180.476 34.1315H184.566C184.772 33.9771 184.964 33.8357 185.145 33.707C185.35 33.5784 185.556 33.4627 185.762 33.3598H184.064L184.489 33.1668H185.145C185.582 32.961 186.032 32.8067 186.495 32.7038C186.958 32.6009 187.434 32.5495 187.923 32.5495C189.055 32.5495 190.071 32.7552 190.971 33.1668H190.315L190.739 33.3598H192.437C192.643 33.4627 192.823 33.5784 192.977 33.707C193.158 33.8357 193.338 33.9771 193.518 34.1315H188.579C188.63 34.1572 188.669 34.1829 188.694 34.2086C188.72 34.2344 188.746 34.273 188.772 34.3244H194.907L195.408 34.9032H189.196C189.222 34.9546 189.273 35.019 189.35 35.0961H193.286C193.363 35.1733 193.415 35.2376 193.44 35.2891H193.633C193.711 35.3919 193.788 35.5206 193.865 35.6749C193.942 35.8035 194.019 35.9322 194.096 36.0608H193.633C193.685 36.1122 193.723 36.1765 193.749 36.2537C193.775 36.3309 193.801 36.3952 193.826 36.4466H194.096C194.148 36.5495 194.174 36.6138 194.174 36.6396H194.135C194.186 36.7425 194.238 36.8711 194.289 37.0254C194.341 37.154 194.379 37.2827 194.405 37.4113H194.444C194.469 37.5142 194.495 37.6171 194.521 37.72C194.547 37.7971 194.572 37.8872 194.598 37.9901H194.328L194.444 38.5689H194.791C194.817 38.6718 194.83 38.7747 194.83 38.8775C194.83 38.9547 194.842 39.0448 194.868 39.1476H194.752V39.3406H194.984L195.023 39.7264H195.1C195.125 39.8293 195.138 39.9322 195.138 40.0351C195.138 40.1123 195.138 40.2023 195.138 40.3052H195.023V40.6911H194.714V41.4628H195.601V41.6557H195.023V42.2345H194.945V43.1992H195.717V43.9709ZM182.251 34.3244C182.328 34.4273 182.405 34.5302 182.482 34.6331C182.559 34.7103 182.624 34.8003 182.675 34.9032H184.874C184.977 34.8003 185.08 34.7103 185.183 34.6331C185.286 34.5302 185.389 34.4273 185.492 34.3244H182.251ZM181.363 35.0961L181.479 35.2891H181.942L182.135 35.7135C182.186 35.6363 182.238 35.572 182.289 35.5206C182.341 35.4434 182.392 35.3662 182.443 35.2891H182.251L182.443 35.0961H181.363ZM186.649 44.1638H186.109V43.9709H186.842V43.1992H186.071V42.2345H186.148V41.6557H186.727V41.4628H185.839V41.347C185.839 41.2184 185.839 41.1027 185.839 40.9998C185.839 40.8969 185.826 40.794 185.8 40.6911H186.109L185.993 40.3052H186.109C186.006 40.0737 185.852 39.8808 185.646 39.7264H185.569C185.363 39.5464 185.067 39.4563 184.681 39.4563C184.321 39.4563 184.013 39.5464 183.755 39.7264H183.562C183.408 39.8551 183.267 40.048 183.138 40.3052H183.485C183.408 40.4081 183.37 40.5367 183.37 40.6911H183.099C183.074 40.794 183.061 40.8969 183.061 40.9998C183.061 41.1027 183.061 41.2184 183.061 41.347V41.4628H183.292V41.6557H182.829V42.2345H183.099V42.4275H183.022V43.1992H183.987V43.9709H183.678V44.1638H185.415V44.5497H186.649V44.1638ZM198.051 29.6941V28.9224H198.012V28.3436H198.359V28.1507H198.591V27.3789H198.398V26.8001H198.436V26.0284H198.591V25.4496H198.514V25.1024C198.514 24.8966 198.539 24.7551 198.591 24.6779H198.977L199.092 24.485H198.784C198.99 24.202 199.272 24.0605 199.633 24.0605H206.154C206.514 24.0605 206.797 24.202 207.003 24.485H207.311L207.427 24.6779H207.003C207.08 24.7808 207.118 24.9223 207.118 25.1024V25.4496H207.195V26.0284H207.041V26.8001H207.003V27.3789H207.195V28.1507H206.964V28.3436H206.617V28.9224H206.655V29.6941H206.925V29.7713C206.925 30.0028 206.835 30.2343 206.655 30.4658H206.192C206.012 30.6973 205.755 30.8131 205.421 30.8131H198.899C198.565 30.8131 198.295 30.6973 198.089 30.4658H198.552C198.398 30.26 198.321 30.0285 198.321 29.7713V29.6941H198.051ZM205.999 37.7971H209.626V38.5689H208.314V38.9547H206.848V39.7264H207.967V39.9194H207.234V40.3052H207.35V40.6911H207.543V41.2699H205.613V41.8487H206.887V42.4275H206.655V42.8133H207.311V43.3921H207.466V43.9709H207.234V44.5497H207.427V44.9355H207.234V45.7073H207.157V46.286H207.003V46.8648H207.157V47.2507H207.234V48.0224H207.08V48.4083H207.273V48.7941H207.234V49.3729H207.388V49.9517H207.504V50.1446H207.234V50.9164H206.694V51.6881H207.08V51.9582C207.08 52.0868 207.067 52.1897 207.041 52.2669H206.771C206.694 52.5241 206.552 52.717 206.347 52.8457H207.118C206.99 52.9486 206.797 53 206.54 53H199.633C199.401 53 199.221 52.9486 199.092 52.8457H198.321C198.089 52.717 197.935 52.5241 197.858 52.2669H198.128C198.102 52.1897 198.089 52.0868 198.089 51.9582V51.6881H197.703V50.9164H198.244V50.1446H198.514V49.9517H198.398V49.3729H198.244V48.7941H198.282V48.4083H198.089V48.0224H198.244V47.2507H198.166V46.8648H198.012V46.286H198.166V45.7073H198.244V44.9355H198.436V44.5497H198.244V43.9709H198.475V43.3921H198.321V42.8133H197.665V42.4275H197.896V41.8487H196.623V41.2699H198.552V40.6911H198.359V40.3052H198.244V39.9194H198.977V39.7264H197.858V38.9547H199.324V38.5689H200.636V37.7971H197.009V37.4113H200.211V36.6396H199.054V36.0608H199.748V35.2891H198.514V35.0961H198.244V34.7103H198.012V34.1315H198.282V33.9771C198.282 33.6942 198.346 33.4884 198.475 33.3598H198.514C198.719 33.0768 199.002 32.9353 199.363 32.9353H206.269C206.63 32.9353 206.913 33.0768 207.118 33.3598H207.041C207.195 33.5141 207.273 33.7199 207.273 33.9771V34.1315H207.003V34.7103H207.234V35.0961H207.504V35.2891H208.739V36.0608H208.044V36.6396H209.202V37.4113H205.999V37.7971ZM229.044 48.6012H228.118V48.9871H229.507V49.3729H230.781V49.9517H229.893V50.5305H232.479V51.1093H228.273V51.881H228.581V51.9582C228.581 52.0096 228.569 52.0482 228.543 52.0739C228.491 52.3312 228.401 52.5241 228.273 52.6527H227.964C227.861 52.7556 227.784 52.8199 227.733 52.8457H229.044C228.916 52.9486 228.736 53 228.504 53H224.144C223.707 53 223.269 52.9871 222.832 52.9614C222.421 52.9357 222.022 52.8971 221.636 52.8457H220.324C220.144 52.8199 219.964 52.7942 219.784 52.7685C219.604 52.717 219.411 52.6785 219.205 52.6527H219.514C219.179 52.5756 218.858 52.4855 218.549 52.3826C218.266 52.2797 217.983 52.1768 217.7 52.0739H217.739C217.662 52.0225 217.584 51.9839 217.507 51.9582C217.43 51.9325 217.366 51.9067 217.314 51.881H217.006C216.8 51.7524 216.594 51.6366 216.388 51.5337C216.182 51.4051 215.977 51.2636 215.771 51.1093H220.015C219.912 51.0064 219.797 50.9164 219.668 50.8392C219.565 50.7363 219.462 50.6334 219.359 50.5305H216.774L216.273 49.9517H217.199C217.121 49.8488 217.044 49.7588 216.967 49.6816C216.916 49.5787 216.864 49.4758 216.813 49.3729H215.539L215.308 48.9871H213.919C213.893 48.9356 213.867 48.8713 213.842 48.7941C213.816 48.717 213.777 48.6527 213.726 48.6012H214.69L214.459 48.0224H215.231L215.115 47.6366C215.063 47.4822 215.038 47.3536 215.038 47.2507H218.086C218.06 47.1478 218.035 47.0578 218.009 46.9806C218.009 46.8777 218.009 46.7748 218.009 46.6719H213.61C213.61 46.6205 213.597 46.5819 213.571 46.5561C213.571 46.5304 213.571 46.5047 213.571 46.479H213.456C213.456 46.3761 213.443 46.286 213.417 46.2089C213.417 46.106 213.417 46.0031 213.417 45.9002H213.301C213.301 45.7973 213.289 45.7073 213.263 45.6301C213.263 45.5272 213.263 45.4243 213.263 45.3214H213.803V45.1285H213.456V44.7426H213.147V43.9709H213.61V43.1992H213.147V42.6204H213.494V42.2345H213.533V41.6557H213.726V40.3052H213.803V39.7264H213.996V39.6879H210.948C210.562 39.6879 210.253 39.5078 210.022 39.1476H210.6C210.523 38.9933 210.485 38.8261 210.485 38.646V38.3759H209.25V37.7971H209.52V37.0254H209.327V36.6396H209.404V36.2537H209.983V36.0608H209.018V35.482H210.176V34.9032H209.944V34.5173H209.674V33.9385H209.443V33.7456H209.327C209.404 33.3598 209.649 33.1025 210.06 32.9739H210.292C210.369 32.9482 210.472 32.9353 210.6 32.9353H213.649V32.781H213.803V32.2022H213.494V31.8163H213.456V31.2375H213.301V31.0446H212.375V30.6587H211.488V30.4658H211.797V30.2729H212.684V29.5012H213.031V29.1153H211.797V28.7294H213.687V28.1507H213.494V27.9577H213.07V27.5719H213.456V27.3789H213.07V26.8001H213.417V26.6458C213.417 26.5172 213.443 26.3757 213.494 26.2214H213.996C214.176 25.8098 214.498 25.604 214.961 25.604H221.713C222.125 25.604 222.446 25.8098 222.678 26.2214H222.176C222.228 26.3757 222.253 26.5172 222.253 26.6458V26.8001H221.906V27.3789H222.292V27.5719H221.906V27.9577H222.331V28.1507H222.523V28.7294H220.633V29.1153H221.867V29.5012H221.52V30.2729H220.633V30.4658H220.324V30.6587H221.212V31.0446H222.138V31.2375H222.292V31.8163H222.331V32.2022H222.639V32.781H222.485V32.9353H227.347C227.475 32.9353 227.565 32.9482 227.617 32.9739H227.385C227.745 33.1025 227.99 33.3598 228.118 33.7456H228.234C228.234 33.7713 228.234 33.7971 228.234 33.8228C228.26 33.8485 228.273 33.8871 228.273 33.9385H228.504V34.5173H228.774V34.9032H229.006V35.482H227.848V36.0608H228.813V36.2537H228.234V36.6396H228.157V37.0254H228.35V37.7971H228.08V38.3759H229.315V38.646C229.315 38.7489 229.302 38.839 229.276 38.9161C229.25 38.9933 229.212 39.0705 229.16 39.1476H228.62C228.388 39.5078 228.08 39.6879 227.694 39.6879H222.832V39.7264H222.639V40.3052H222.562V41.6557H222.369V42.2345H222.331V42.6204H221.983V43.1992H222.446V43.9709H221.983C221.983 44.0995 221.983 44.2281 221.983 44.3567C222.009 44.4854 222.035 44.614 222.06 44.7426H222.408C222.459 44.897 222.511 45.0256 222.562 45.1285H222.871L222.986 45.3214H222.446C222.729 45.6815 223.167 45.8616 223.758 45.8616H227.27C227.398 45.8616 227.488 45.8745 227.54 45.9002H227.655C227.964 45.9774 228.183 46.1703 228.311 46.479H228.427C228.427 46.5047 228.427 46.5304 228.427 46.5561C228.453 46.5819 228.466 46.6205 228.466 46.6719H232.864C232.864 46.6976 232.864 46.7362 232.864 46.7877C232.89 46.8134 232.903 46.852 232.903 46.9034V47.2507H229.816V48.0224H229.044V48.6012ZM257.028 52.6527H255.755V53.4244H256.102V53.8103H256.179V54.582H256.449V54.775H256.681V55.1608H257.26V55.7396C257.26 55.8168 257.247 55.8811 257.221 55.9325C257.169 56.3184 256.964 56.5756 256.604 56.7043H256.256C256.102 56.7557 255.973 56.7814 255.87 56.7814H232.526C232.423 56.7814 232.294 56.7557 232.14 56.7043H232.487C232.127 56.5756 231.909 56.3184 231.831 55.9325V55.1608H231.253V54.775H231.021V54.582H230.751V53.8103H230.674V53.4244H230.327V52.6527H231.6V52.4598H231.909V52.0739H230.288V51.881H230.944V51.3022H230.79V50.5305H230.828V50.2604C230.828 50.1318 230.841 50.0289 230.867 49.9517H230.635C230.815 49.463 231.15 49.2186 231.638 49.2186H254.983C255.523 49.2186 255.858 49.463 255.986 49.9517H256.179C256.205 50.0032 256.218 50.0546 256.218 50.1061C256.243 50.1575 256.256 50.209 256.256 50.2604V50.5305H256.218V51.3022H256.372V51.881H255.716V52.0739H257.337V52.4598H257.028V52.6527Z" fill="#FCF551"/>
<path d="M57.8325 77.3337H216.509V80.1763H57.8325" fill="#FCF551"/>
<path d="M6.81738 77.3337H39.7035V80.1763H6.81738" fill="#FCF551"/>
<path d="M328.036 5.33105V50.8877V52.1631L332 51.0169V50.8877V5.33105H328.036Z" fill="#75E8F0"/>
</svg>
