<svg width="30" height="29" viewBox="0 0 30 29" fill="none" xmlns="http://www.w3.org/2000/svg">
<path d="M27.8028 7.09988V0L22.1594 4.55514L14.2304 10.9514L6.30147 4.55514L0.654785 0V7.09988L1.90086 8.10244L9.82982 14.4987L1.90086 20.8949L0.654785 21.9001V29L6.30147 24.4449L14.2304 18.0486L22.1594 24.4449L27.8028 29V21.9001L26.5567 20.8949L18.6278 14.4987L26.5567 8.10244L27.8028 7.09988Z" fill="#75E8F0"/>
<path d="M30.0001 7.09988V0L24.3567 4.55514L16.4277 10.9514L8.49873 4.55514L2.85205 0V7.09988L4.09812 8.10244L12.0271 14.4987L4.09812 20.8949L2.85205 21.9001V29L8.49873 24.4449L16.4277 18.0486L24.3567 24.4449L30.0001 29V21.9001L28.754 20.8949L20.8283 14.4987L28.754 8.10244L30.0001 7.09988Z" fill="#D360AA"/>
<path d="M28.7442 7.09988V0L23.1008 4.55514L15.1718 10.9514L7.24287 4.55514L1.59619 0V7.09988L2.84226 8.10244L10.7712 14.4987L2.84226 20.8949L1.59619 21.9001V29L7.24287 24.4449L15.1718 18.0486L23.1008 24.4449L28.7442 29V21.9001L27.5014 20.8949L19.5724 14.4987L27.5014 8.10244L28.7442 7.09988Z" fill="#FCF551"/>
</svg>
