<svg width="42" height="28" viewBox="0 0 42 28" fill="none" xmlns="http://www.w3.org/2000/svg">
<path d="M31.644 1.03564H7.17982H5.67627L0.364258 7.90496H7.17982H31.644H33.1476L38.4596 1.03564H31.644Z" fill="#75E8F0"/>
<path d="M31.644 11.0835H7.17982H5.67627L0.364258 17.9528H7.17982H31.644H33.1476L38.4596 11.0835H31.644Z" fill="#75E8F0"/>
<path d="M31.644 21.1309H7.17982H5.67627L0.364258 28.0002H7.17982H31.644H33.1476L38.4596 21.1309H31.644Z" fill="#75E8F0"/>
<path d="M35.1841 0H10.7199H9.21631L3.9043 6.86931H10.7199H35.1841H36.6876L41.9996 0H35.1841Z" fill="#D360AA"/>
<path d="M35.1841 10.0474H10.7199H9.21631L3.9043 16.9167H10.7199H35.1841H36.6876L41.9996 10.0474H35.1841Z" fill="#D360AA"/>
<path d="M35.1841 20.0942H10.7199H9.21631L3.9043 26.9635H10.7199H35.1841H36.6876L41.9996 20.0942H35.1841Z" fill="#D360AA"/>
<path d="M33.4692 0.34668H9.00769H7.50415L2.18945 7.21599H9.00769H33.4692H34.9728L40.2875 0.34668H33.4692Z" fill="#FCF551"/>
<path d="M33.4692 10.394H9.00769H7.50415L2.18945 17.2634H9.00769H33.4692H34.9728L40.2875 10.394H33.4692Z" fill="#FCF551"/>
<path d="M33.4692 20.4419H9.00769H7.50415L2.18945 27.3112H9.00769H33.4692H34.9728L40.2875 20.4419H33.4692Z" fill="#FCF551"/>
</svg>
