<svg width="1728" height="377" viewBox="0 0 1728 377" fill="none" xmlns="http://www.w3.org/2000/svg">
<path d="M1733 257.053V212.559V86L1597.48 192.149H1278.06L1245.47 217.678L1213.45 192.592L1054.5 196.251L981.5 240.925H914.277L857.231 196.251H540.602H314.746L251.898 245.47H-102V312.096H179.916V323.679H533.793L596.663 372.898H822.497H1139.15L1196.19 328.224L1257.89 376.557H1495.37L1527.38 351.472L1559.98 377H1733V257.053Z" fill="#090A1E"/>
<path d="M38 211.25V273.25H44.5V211.25H38Z" fill="#D9D9D9"/>
<path d="M38 211.25V273.25H44.5V211.25H38Z" fill="#090A1E"/>
<path d="M38 211.25V273.25H44.5V211.25H38Z" stroke="#090A1E"/>
<path d="M121 165H21V211H121V165Z" fill="#D9D9D9"/>
<path d="M121 165H21V211H121V165Z" fill="#090A1E"/>
<path d="M121 165H21V211H121V165Z" stroke="#090A1E"/>
<path d="M97.5 211.25V273.25H104V211.25H97.5Z" fill="#D9D9D9"/>
<path d="M97.5 211.25V273.25H104V211.25H97.5Z" fill="#090A1E"/>
<path d="M97.5 211.25V273.25H104V211.25H97.5Z" stroke="#090A1E"/>
<path d="M329 143V205H335.5V143H329Z" fill="#D9D9D9"/>
<path d="M329 143V205H335.5V143H329Z" fill="#090A1E"/>
<path d="M329 143V205H335.5V143H329Z" stroke="#090A1E"/>
<path d="M359.5 143V205H366V143H359.5Z" fill="#D9D9D9"/>
<path d="M359.5 143V205H366V143H359.5Z" fill="#090A1E"/>
<path d="M359.5 143V205H366V143H359.5Z" stroke="#090A1E"/>
<path d="M390 143V205H396.5V143H390Z" fill="#D9D9D9"/>
<path d="M390 143V205H396.5V143H390Z" fill="#090A1E"/>
<path d="M390 143V205H396.5V143H390Z" stroke="#090A1E"/>
<path d="M421 143V205H427.5V143H421Z" fill="#D9D9D9"/>
<path d="M421 143V205H427.5V143H421Z" fill="#090A1E"/>
<path d="M421 143V205H427.5V143H421Z" stroke="#090A1E"/>
<path d="M451.5 143V205H458V143H451.5Z" fill="#D9D9D9"/>
<path d="M451.5 143V205H458V143H451.5Z" fill="#090A1E"/>
<path d="M451.5 143V205H458V143H451.5Z" stroke="#090A1E"/>
<path d="M482 143V205H488.5V143H482Z" fill="#D9D9D9"/>
<path d="M482 143V205H488.5V143H482Z" fill="#090A1E"/>
<path d="M482 143V205H488.5V143H482Z" stroke="#090A1E"/>
<path d="M513 143V205H519.5V143H513Z" fill="#D9D9D9"/>
<path d="M513 143V205H519.5V143H513Z" fill="#090A1E"/>
<path d="M513 143V205H519.5V143H513Z" stroke="#090A1E"/>
<path d="M543.5 143V205H550V143H543.5Z" fill="#D9D9D9"/>
<path d="M543.5 143V205H550V143H543.5Z" fill="#090A1E"/>
<path d="M543.5 143V205H550V143H543.5Z" stroke="#090A1E"/>
<path d="M574 143V205H580.5V143H574Z" fill="#D9D9D9"/>
<path d="M574 143V205H580.5V143H574Z" fill="#090A1E"/>
<path d="M574 143V205H580.5V143H574Z" stroke="#090A1E"/>
<path d="M605 143V205H611.5V143H605Z" fill="#D9D9D9"/>
<path d="M605 143V205H611.5V143H605Z" fill="#090A1E"/>
<path d="M605 143V205H611.5V143H605Z" stroke="#090A1E"/>
<path d="M635.5 143V205H642V143H635.5Z" fill="#D9D9D9"/>
<path d="M635.5 143V205H642V143H635.5Z" fill="#090A1E"/>
<path d="M635.5 143V205H642V143H635.5Z" stroke="#090A1E"/>
<path d="M666 143V205H672.5V143H666Z" fill="#D9D9D9"/>
<path d="M666 143V205H672.5V143H666Z" fill="#090A1E"/>
<path d="M666 143V205H672.5V143H666Z" stroke="#090A1E"/>
<path d="M683 134H319V143H683V134Z" fill="#D9D9D9"/>
<path d="M683 134H319V143H683V134Z" fill="#090A1E"/>
<path d="M683 134H319V143H683V134Z" stroke="#090A1E"/>
<path d="M799 171V251H806V171H799Z" fill="#D9D9D9"/>
<path d="M799 171V251H806V171H799Z" fill="#090A1E"/>
<path d="M799 171V251H806V171H799Z" stroke="#090A1E"/>
<path d="M830 171V251H836V171H830Z" fill="#D9D9D9"/>
<path d="M830 171V251H836V171H830Z" fill="#090A1E"/>
<path d="M830 171V251H836V171H830Z" stroke="#090A1E"/>
<path d="M860 171V251H867V171H860Z" fill="#D9D9D9"/>
<path d="M860 171V251H867V171H860Z" fill="#090A1E"/>
<path d="M860 171V251H867V171H860Z" stroke="#090A1E"/>
<path d="M891 171V251H898V171H891Z" fill="#D9D9D9"/>
<path d="M891 171V251H898V171H891Z" fill="#090A1E"/>
<path d="M891 171V251H898V171H891Z" stroke="#090A1E"/>
<path d="M922 171V251H928V171H922Z" fill="#D9D9D9"/>
<path d="M922 171V251H928V171H922Z" fill="#090A1E"/>
<path d="M922 171V251H928V171H922Z" stroke="#090A1E"/>
<path d="M952 171V251H959V171H952Z" fill="#D9D9D9"/>
<path d="M952 171V251H959V171H952Z" fill="#090A1E"/>
<path d="M952 171V251H959V171H952Z" stroke="#090A1E"/>
<path d="M983 171V251H990V171H983Z" fill="#D9D9D9"/>
<path d="M983 171V251H990V171H983Z" fill="#090A1E"/>
<path d="M983 171V251H990V171H983Z" stroke="#090A1E"/>
<path d="M1014 171V251H1020V171H1014Z" fill="#D9D9D9"/>
<path d="M1014 171V251H1020V171H1014Z" fill="#090A1E"/>
<path d="M1014 171V251H1020V171H1014Z" stroke="#090A1E"/>
<path d="M1044 171V251H1051V171H1044Z" fill="#D9D9D9"/>
<path d="M1044 171V251H1051V171H1044Z" fill="#090A1E"/>
<path d="M1044 171V251H1051V171H1044Z" stroke="#090A1E"/>
<path d="M1075 171V251H1082V171H1075Z" fill="#D9D9D9"/>
<path d="M1075 171V251H1082V171H1075Z" fill="#090A1E"/>
<path d="M1075 171V251H1082V171H1075Z" stroke="#090A1E"/>
<path d="M1106 171V251H1112V171H1106Z" fill="#D9D9D9"/>
<path d="M1106 171V251H1112V171H1106Z" fill="#090A1E"/>
<path d="M1106 171V251H1112V171H1106Z" stroke="#090A1E"/>
<path d="M1136 171V251H1143V171H1136Z" fill="#D9D9D9"/>
<path d="M1136 171V251H1143V171H1136Z" fill="#090A1E"/>
<path d="M1136 171V251H1143V171H1136Z" stroke="#090A1E"/>
<path d="M1615 96V187H1622V96H1615Z" fill="#D9D9D9"/>
<path d="M1615 96V187H1622V96H1615Z" fill="#090A1E"/>
<path d="M1615 96V187H1622V96H1615Z" stroke="#090A1E"/>
<path d="M1646 69V159H1653V69H1646Z" fill="#D9D9D9"/>
<path d="M1646 69V159H1653V69H1646Z" fill="#090A1E"/>
<path d="M1646 69V159H1653V69H1646Z" stroke="#090A1E"/>
<path d="M1677 47V159H1683V47H1677Z" fill="#D9D9D9"/>
<path d="M1677 47V159H1683V47H1677Z" fill="#090A1E"/>
<path d="M1677 47V159H1683V47H1677Z" stroke="#090A1E"/>
<path d="M1707 21V159H1714V21H1707Z" fill="#D9D9D9"/>
<path d="M1707 21V159H1714V21H1707Z" fill="#090A1E"/>
<path d="M1707 21V159H1714V21H1707Z" stroke="#090A1E"/>
<path d="M1153 159H789V171H1153V159Z" fill="#D9D9D9"/>
<path d="M1153 159H789V171H1153V159Z" fill="#090A1E"/>
<path d="M1153 159H789V171H1153V159Z" stroke="#090A1E"/>
<path d="M1584 181H1543V193H1584V181Z" fill="#D9D9D9"/>
<path d="M1584 181H1543V193H1584V181Z" fill="#090A1E"/>
<path d="M1584 181H1543V193H1584V181Z" stroke="#090A1E"/>
<path d="M1528 181H1487V193H1528V181Z" fill="#D9D9D9"/>
<path d="M1528 181H1487V193H1528V181Z" fill="#090A1E"/>
<path d="M1528 181H1487V193H1528V181Z" stroke="#090A1E"/>
<path d="M1472 181H1431V193H1472V181Z" fill="#D9D9D9"/>
<path d="M1472 181H1431V193H1472V181Z" fill="#090A1E"/>
<path d="M1472 181H1431V193H1472V181Z" stroke="#090A1E"/>
<path d="M1416 181H1375V193H1416V181Z" fill="#D9D9D9"/>
<path d="M1416 181H1375V193H1416V181Z" fill="#090A1E"/>
<path d="M1416 181H1375V193H1416V181Z" stroke="#090A1E"/>
<path d="M1583.64 112.151L1725.85 1.00006L1733.24 10.4546L1591.03 121.606L1583.64 112.151Z" fill="#D9D9D9"/>
<path d="M1583.64 112.151L1725.85 1.00006L1733.24 10.4546L1591.03 121.606L1583.64 112.151Z" fill="#090A1E"/>
<path d="M1583.64 112.151L1725.85 1.00006L1733.24 10.4546L1591.03 121.606L1583.64 112.151Z" stroke="#090A1E"/>
</svg>
